# AST/ASF file generated using VICON BodyLanguage
# -----------------------------------------------
:version 1.10
:name VICON
:units
  mass 1.0
  length 0.45
  angle deg
:documentation
   .ast/.asf automatically generated from VICON data using
   VICON BodyBuilder and BodyLanguage model FoxedUp or BRILLIANT.MOD
:root
   order TX TY TZ RX RY RZ
   axis XYZ
   position 0 0 0  
   orientation 0 0 0 
:bonedata
  begin
     id 1 
     name lhipjoint
     direction 0.707368 -0.647095 0.284426 
     length 2.60678 
     axis 0 0 0  XYZ
  end
  begin
     id 2 
     name lfemur
     direction 0.34202 -0.939693 0  
     length 6.63812  
     axis 0 0 20  XYZ
    dof rx ry rz
    limits (-160.0 20.0)
           (-70.0 70.0)
           (-60.0 70.0)
  end
  begin
     id 3 
     name ltibia
     direction 0.34202 -0.939693 0   
     length 7.51178   
     axis 0 0 20   XYZ
    dof rx
    limits (-10.0 170.0)
  end
  begin
     id 4 
     name lfoot
     direction 0.121251 -0.333133 0.935051   
     length 1.83716   
     axis -90 7.62852e-016 20   XYZ
    dof rx rz
    limits (-45.0 90.0)
           (-70.0 20.0)
  end
  begin
     id 5 
     name ltoes
     direction 1.53611e-011 -4.21962e-011 1   
     length 0.916133   
     axis -90 7.62852e-016 20   XYZ
    dof rx
    limits (-90.0 20.0)
  end
  begin
     id 6 
     name rhipjoint
     direction -0.692419 -0.660507 0.290321   
     length 2.55385  
     axis 0 0 0  XYZ 
  end
  begin
     id 7 
     name rfemur
     direction -0.34202 -0.939693 0   
     length 7.29079   
     axis 0 0 -20   XYZ
    dof rx ry rz
    limits (-160.0 20.0)
           (-70.0 70.0)
           (-70.0 60.0)
  end
  begin
     id 8 
     name rtibia
     direction -0.34202 -0.939693 0   
     length 7.47143   
     axis 0 0 -20   XYZ
    dof rx
    limits (-10.0 170.0)
 end
 begin
     id 9 
     name rfoot
     direction -0.119907 -0.329441 0.936532   
     length 1.79439  
     axis -90 -7.62852e-016 -20   XYZ
    dof rx rz
    limits (-45.0 90.0)
           (-20.0 70.0)
  end
  begin
     id 10 
     name rtoes
     direction -1.53571e-011 -4.21961e-011 1   
     length 0.896039   
     axis -90 -7.62852e-016 -20   XYZ
    dof rx
    limits (-90.0 20.0)
  end
  begin
     id 11 
     name lowerback
     direction 0.0367721 0.992912 -0.113016   
     length 1.73542   
     axis 0 0 0   XYZ
    dof rx ry rz
    limits (-20.0 45.0)
           (-30.0 30.0)
           (-30.0 30.0)
  end
  begin
     id 12 
     name upperback
     direction -0.000314626 0.990678 0.136227   
     length 1.7514   
     axis 0 0 0   XYZ
    dof rx ry rz
    limits (-20.0 45.0)
           (-30.0 30.0)
           (-30.0 30.0)
  end
  begin
     id 13 
     name thorax
     direction -0.0226159 0.981151 0.191917   
     length 1.71471   
     axis 0 0 0   XYZ
    dof rx ry rz
    limits (-20.0 45.0)
           (-30.0 30.0)
           (-30.0 30.0)
  end
  begin
     id 14 
     name lowerneck
     direction 0.0219333 0.998071 0.0580739   
     length 1.65882   
     axis 0 0 0   XYZ
    dof rx ry rz
    limits (-20.0 45.0)
           (-30.0 30.0)
           (-30.0 30.0)
  end
  begin
     id 15 
     name upperneck
     direction 0.0384529 0.980058 -0.194957   
     length 1.6612   
     axis 0 0 0   XYZ
    dof rx ry rz
    limits (-20.0 45.0)
           (-30.0 30.0)
           (-30.0 30.0)
  end
  begin
     id 16
     name head
     direction 0.00592123 0.997421 -0.0715234  
     length 1.68077  
     axis 0 0 0   XYZ
    dof rx ry rz
    limits (-20.0 45.0)
           (-30.0 30.0)
           (-30.0 30.0)
  end
  begin
     id 17 
     name lclavicle
     direction 0.904803 0.417826 0.0821728  
     length 3.42227  
     axis 0 0 0   XYZ
    dof ry rz
    limits (-20.0 10.0)
           (0.0 20.0)
  end
  begin
     id 18 
     name lhumerus
     direction 1 -4.48965e-011 -2.68786e-027   
     length 5.11878   
     axis -180 -30 -90   XYZ
    dof rx ry rz
    limits (-60.0 90.0)
           (-90.0 90.0)
           (-90.0 90.0)
  end
  begin
     id 19
     name lradius
     direction 1 -4.48965e-011 2.61168e-028   
     length 3.59971   
     axis -180 -30 -90   XYZ
    dof rx
    limits (-10.0 170.0)
  end
  begin
     id 20
     name lwrist
     direction 1 -4.48965e-011 1.58672e-027   
     length 1.79985   
     axis -1.65735e-015 90 90   XYZ
    dof ry
    limits (-180.0 0.0)
 end
  begin
     id 21 
     name lhand
     direction 1 -4.48942e-011 3.17344e-027   
     length 0.62877   
     axis -2.02492e-015 90 90   XYZ
    dof rx rz
    limits (-90.0 90.0)
           (-45.0 45.0)
  end
  begin
     id 22 
     name lfingers
     direction 1 -4.49011e-011 6.34687e-027   
     length 0.506931   
     axis -4.04985e-015 90 90   XYZ
    dof rx
    limits (0.0 90.0)
  end
  begin
     id 23
     name lthumb
     direction 0.707107 -6.34982e-011 0.707107   
     length 0.727854   
     axis -90 45 2.85299e-015   XYZ
    dof rx rz
    limits (-45.0 45.0)
           (-45.0 45.0)
  end
  begin
     id 24 
     name rclavicle
     direction -0.945647 0.32488 0.0143075   
     length 3.52737  
     axis 0 0 0   XYZ 
    dof ry rz
    limits (-10.0 20.0)
           (-20.0 0.0)
  end
  begin
     id 25 
     name rhumerus
     direction -1 -4.48962e-011 1.92182e-027  
     length 5.4902   
     axis -180 30 90   XYZ
    dof rx ry rz
    limits (-90.0 60.0)
           (-90.0 90.0)
           (-90.0 90.0)
  end
  begin
     id 26 
     name rradius
     direction -1 -4.48967e-011 -5.97193e-028   
     length 3.20659   
     axis -180 30 90   XYZ
    dof rx
    limits (-10.0 170.0)
  end
  begin
     id 27 
     name rwrist
     direction -1 -4.48964e-011 1.58672e-027   
     length 1.6033   
     axis -1.65735e-015 -90 -90   XYZ
    dof ry
    limits (-180.0 0.0)
  end
  begin
     id 28
     name rhand
     direction -1 -4.49006e-011 3.17344e-027   
     length 0.691885   
     axis -2.02492e-015 -90 -90   XYZ
    dof rx rz
    limits (-90.0 90.0)
           (-45.0 45.0)
  end
  begin
     id 29
     name rfingers
     direction -1 -4.48908e-011 6.34687e-027   
     length 0.557815   
     axis -4.04985e-015 -90 -90   XYZ
    dof rx
    limits (0.0 90.0)
  end
  begin
     id 30
     name rthumb
     direction -0.707107 -6.34999e-011 0.707107   
     length 0.800915   
     axis -90 -45 -2.85299e-015   XYZ
    dof rx rz
    limits (-45.0 45.0)
           (-45.0 45.0)
  end
:hierarchy
  begin
    root lhipjoint rhipjoint lowerback
    lhipjoint lfemur
    lfemur ltibia
    ltibia lfoot
    lfoot ltoes
    rhipjoint rfemur
    rfemur rtibia
    rtibia rfoot
    rfoot rtoes
    lowerback upperback
    upperback thorax
    thorax lowerneck lclavicle rclavicle
    lowerneck upperneck
    upperneck head
    lclavicle lhumerus
    lhumerus lradius
    lradius lwrist
    lwrist lhand lthumb
    lhand lfingers
    rclavicle rhumerus
    rhumerus rradius
    rradius rwrist
    rwrist rhand rthumb
    rhand rfingers
  end

#!OML:ASF I:\Actors\actors\Patient Classification 1\Patient 1\Session 1\Subject1.ASF
:FULLY-SPECIFIED
:DEGREES
1
root 0.119878 17.5031 8.88318 11.2758 0.802018 -8.96661
lowerback 0.43297 0.336354 7.35024
upperback -10.0078 1.09275 1.89571
thorax -10.8961 -0.0227726 -2.16179
lowerneck -3.71832 -12.7339 -12.5411
upperneck 18.7341 -19.054 12.8913
head 8.92037 -9.02458 4.32968
rclavicle -2.28602e-014 1.8487e-014
rhumerus -56.4547 -40.9348 -46.5108
rradius 23.3958
rwrist 50.3737
rhand 8.33068 -32.4955
rfingers 7.12502
rthumb 33.5414 -59.3799
lclavicle -2.28602e-014 1.8487e-014
lhumerus -68.8481 45.632 30.2867
lradius 14.9654
lwrist -50.5586
lhand -18.1176 -14.2058
lfingers 7.12502
lthumb 8.15688 15.6168
rfemur -3.00183 27.3249 25.154
rtibia 1.08217
rfoot -13.7644 -29.1345
rtoes 4.35749
lfemur 5.66825 -50.7 -12.1013
ltibia -5.0279
lfoot -33.3603 58.3445
ltoes 17.7188
2
root 0.119558 17.5029 8.88562 11.2246 0.795787 -8.96927
lowerback 0.463601 0.343335 7.36827
upperback -9.97919 1.10584 1.90885
thorax -10.8808 -0.016189 -2.15943
lowerneck -4.02131 -12.8212 -12.4474
upperneck 19.0163 -19.1271 12.582
head 9.03973 -9.05441 4.17924
rclavicle -4.96962e-017 5.50634e-014
rhumerus -56.3587 -40.9326 -46.5116
rradius 23.251
rwrist 50.381
rhand 7.96261 -32.3613
rfingers 7.12502
rthumb 33.1915 -59.3209
lclavicle -4.96962e-017 5.50634e-014
lhumerus -68.6755 45.5159 30.606
lradius 14.995
lwrist -50.3821
lhand -18.1572 -14.1405
lfingers 7.12502
lthumb 8.11861 15.6836
rfemur -2.90921 27.4167 25.1942
rtibia 1.04087
rfoot -13.7957 -29.2252
rtoes 4.4963
lfemur 5.84654 -50.8556 -12.2572
ltibia -5.04366
lfoot -33.3256 58.5769
ltoes 17.3324
3
root 0.121468 17.502 8.88617 11.2254 0.831506 -8.95166
lowerback 0.470691 0.348006 7.41136
upperback -9.97843 1.11504 1.90108
thorax -10.8837 -0.0160436 -2.19261
lowerneck -4.14971 -12.8687 -12.3998
upperneck 19.1394 -19.1695 12.4312
head 9.09019 -9.07337 4.10587
rclavicle -5.66536e-015 4.37326e-014
rhumerus -56.446 -41.0184 -46.378
rradius 23.2459
rwrist 50.4139
rhand 7.95661 -32.3169
rfingers 7.12502
rthumb 33.1858 -59.2778
lclavicle -5.66536e-015 4.37326e-014
lhumerus -68.4408 45.3728 30.9969
lradius 15.0199
lwrist -50.1322
lhand -18.136 -14.1556
lfingers 7.12502
lthumb 8.13906 15.6677
rfemur -2.89905 27.2963 25.1754
rtibia 1.02311
rfoot -13.7162 -29.1689
rtoes 4.10282
lfemur 5.79193 -50.7332 -12.234
ltibia -5.05816
lfoot -32.9433 58.5295
ltoes 16.9811
4
root 0.12807 17.5008 8.88373 11.2282 0.902885 -8.96517
lowerback 0.500296 0.345793 7.57379
upperback -9.97109 1.1237 1.88434
thorax -10.8939 -0.0275373 -2.30167
lowerneck -4.19519 -12.8894 -12.3667
upperneck 19.1694 -19.1871 12.3689
head 9.10108 -9.08111 4.07431
rclavicle -1.16289e-014 8.74653e-015
rhumerus -56.6077 -41.1892 -46.1679
rradius 23.3072
rwrist 50.4729
rhand 8.09863 -32.2289
rfingers 7.12502
rthumb 33.3208 -59.1609
lclavicle -1.16289e-014 8.74653e-015
lhumerus -68.3236 45.3463 31.2045
lradius 15.0164
lwrist -50.0374
lhand -18.2369 -14.2138
lfingers 7.12502
lthumb 8.04172 15.6132
rfemur -2.89701 26.9699 25.1717
rtibia 0.993498
rfoot -13.657 -28.9424
rtoes 3.95743
lfemur 5.70644 -50.5782 -12.1852
ltibia -5.02669
lfoot -32.4143 58.4079
ltoes 16.6257
5
root 0.12977 17.5001 8.88287 11.2475 0.881678 -8.95564
lowerback 0.491575 0.419776 7.6393
upperback -9.95176 1.21897 1.8042
thorax -10.8555 0.0103112 -2.43366
lowerneck -4.22243 -12.9818 -12.1844
upperneck 19.1397 -19.3097 12.2769
head 9.08357 -9.13259 3.99723
rclavicle -3.14577e-014 3.63776e-014
rhumerus -56.7037 -41.3793 -46.1636
rradius 23.27
rwrist 50.3131
rhand 7.9891 -32.6191
rfingers 7.12502
rthumb 33.2167 -59.5734
lclavicle -3.14577e-014 3.63776e-014
lhumerus -67.6886 45.1582 31.9717
lradius 15.0385
lwrist -49.7435
lhand -18.4232 -13.5313
lfingers 7.12502
lthumb 7.86187 16.3025
rfemur -2.90249 27.013 25.1387
rtibia 0.955044
rfoot -13.7331 -28.9499
rtoes 4.88879
lfemur 5.63562 -50.4894 -12.1566
ltibia -5.008
lfoot -32.2483 58.3719
ltoes 16.5335
6
root 0.118809 17.5042 8.90372 11.5871 0.97745 -9.1171
lowerback -0.211531 0.565083 7.7061
upperback -9.96465 1.34165 1.72618
thorax -10.4304 0.0753055 -2.55761
lowerneck -4.2282 -13.1535 -11.8485
upperneck 19.1085 -19.5604 12.1673
head 9.06048 -9.23642 3.87484
rclavicle -1.53064e-014 2.62396e-014
rhumerus -56.7135 -41.4807 -46.474
rradius 23.1355
rwrist 49.749
rhand 7.62008 -33.5727
rfingers 7.12502
rthumb 32.8657 -60.6011
lclavicle -1.53064e-014 2.62396e-014
lhumerus -66.443 44.6902 33.4035
lradius 15.0967
lwrist -49.1456
lhand -18.514 -12.184
lfingers 7.12502
lthumb 7.7743 17.6531
rfemur -3.1523 27.4623 25.2504
rtibia 0.840014
rfoot -13.7873 -29.4033
rtoes 6.18687
lfemur 5.09391 -50.5932 -11.4563
ltibia -5.09587
lfoot -32.2633 58.5236
ltoes 16.4052
7
root 0.105389 17.5112 8.91663 11.8956 0.8236 -8.6596
lowerback -0.714359 0.664962 6.99412
upperback -10.0073 1.38006 1.58013
thorax -10.1643 0.15679 -2.31648
lowerneck -4.21486 -13.2352 -11.7036
upperneck 19.1221 -19.692 12.1496
head 9.06307 -9.28989 3.82935
rclavicle 8.69683e-015 -1.98785e-015
rhumerus -56.6384 -41.4115 -46.8007
rradius 23.0837
rwrist 49.2993
rhand 7.40976 -34.0717
rfingers 7.12502
rthumb 32.6656 -61.1419
lclavicle 8.69683e-015 -1.98785e-015
lhumerus -65.9842 44.5386 33.8996
lradius 15.1106
lwrist -49.0118
lhand -18.5069 -11.5778
lfingers 7.12502
lthumb 7.78114 18.259
rfemur -3.49379 28.0253 24.5658
rtibia 0.820001
rfoot -13.8813 -29.8503
rtoes 6.93778
lfemur 4.73032 -51.1687 -11.6848
ltibia -5.02842
lfoot -33.4212 58.928
ltoes 17.1544
8
root 0.100683 17.5144 8.91981 12.0173 0.724865 -8.34256
lowerback -0.862919 0.663038 6.55441
upperback -10.041 1.34045 1.53507
thorax -10.1144 0.173952 -2.1159
lowerneck -4.19631 -13.2115 -11.776
upperneck 19.1892 -19.6824 12.234
head 9.09875 -9.28263 3.8695
rclavicle -9.79014e-015 1.55052e-014
rhumerus -56.6104 -41.3868 -46.8268
rradius 23.0356
rwrist 49.3283
rhand 7.41154 -34.0858
rfingers 7.12502
rthumb 32.6673 -61.1556
lclavicle -9.79014e-015 1.55052e-014
lhumerus -66.2812 44.7129 33.534
lradius 15.0794
lwrist -49.2508
lhand -18.5261 -11.6256
lfingers 7.12502
lthumb 7.76256 18.2119
rfemur -3.66063 28.1741 24.1092
rtibia 0.839539
rfoot -13.9825 -29.9349
rtoes 7.18686
lfemur 4.57665 -51.4092 -11.944
ltibia -4.96247
lfoot -33.9474 59.0696
ltoes 17.6065
9
root 0.100748 17.514 8.91993 12.0409 0.73213 -8.33074
lowerback -0.874621 0.653521 6.54243
upperback -10.0483 1.32719 1.54517
thorax -10.1171 0.168809 -2.09725
lowerneck -4.16761 -13.1847 -11.8323
upperneck 19.208 -19.6656 12.3269
head 9.11419 -9.27206 3.91257
rclavicle 2.73329e-014 -1.70955e-014
rhumerus -56.6959 -41.5285 -46.6369
rradius 22.9376
rwrist 49.5473
rhand 7.43748 -34.0701
rfingers 7.12502
rthumb 32.692 -61.1348
lclavicle 2.73329e-014 -1.70955e-014
lhumerus -66.4335 44.8254 33.3547
lradius 15.0453
lwrist -49.3604
lhand -18.619 -11.6722
lfingers 7.12502
lthumb 7.67292 18.1686
rfemur -3.68955 28.1983 24.0843
rtibia 0.849007
rfoot -14.0476 -29.9555
rtoes 7.40371
lfemur 4.488 -51.3268 -11.8839
ltibia -4.95129
lfoot -33.9176 58.9723
ltoes 17.7215
10
root 0.101041 17.5135 8.92005 12.072 0.740926 -8.30268
lowerback -0.903786 0.657329 6.52118
upperback -10.0469 1.32825 1.53918
thorax -10.0977 0.17149 -2.09159
lowerneck -4.11779 -13.1644 -11.8618
upperneck 19.1621 -19.6569 12.4355
head 9.10342 -9.2649 3.95799
rclavicle -1.10325e-014 -1.07344e-014
rhumerus -56.8443 -41.7235 -46.4156
rradius 22.9071
rwrist 49.7586
rhand 7.47649 -34.0185
rfingers 7.12502
rthumb 32.7291 -61.0755
lclavicle -1.10325e-014 -1.07344e-014
lhumerus -66.439 44.869 33.3579
lradius 15.0282
lwrist -49.4153
lhand -18.6738 -11.7589
lfingers 7.12502
lthumb 7.62001 18.0838
rfemur -3.71987 28.2776 24.0416
rtibia 0.852938
rfoot -14.0765 -30.0418
rtoes 7.48049
lfemur 4.40668 -51.3116 -11.8542
ltibia -4.92948
lfoot -33.9299 58.9269
ltoes 17.6191
